<svg version="1.1" xmlns="http://www.w3.org/2000/svg" width="441" height="500">
<path d="M0 0 C8.85833804 5.4712567 11.94010561 23.73608529 14.89746094 33.24804688 C17.96677658 43.05801391 21.29172128 52.77737957 24.625 62.5 C24.90272247 63.31147491 25.18044495 64.12294983 25.46658325 64.95901489 C28.13217074 72.74419936 30.81592047 80.52109957 33.59765625 88.265625 C44.25021249 117.95223387 53.43496175 148.02694108 61.14208984 178.60400391 C62.24000757 182.95005842 63.36177687 187.2893516 64.5 191.625 C64.68353027 192.33277588 64.86706055 193.04055176 65.05615234 193.76977539 C66.31838763 198.58463504 67.68322257 203.36359671 69.08203125 208.140625 C69.64110335 210.07809636 70.19838505 212.0160724 70.75488281 213.95428467 C71.29400438 215.81129173 71.85175991 217.66285769 72.41015625 219.51416016 C74.66308067 227.36798467 75.93402314 234.81382972 75 243 C71.53608345 248.81443134 64.0295191 251.32036856 58 254 C57.13906738 254.38333496 56.27813477 254.76666992 55.39111328 255.16162109 C52.47832142 256.44297063 49.55434654 257.69449854 46.625 258.9375 C45.19812866 259.55866699 45.19812866 259.55866699 43.74243164 260.19238281 C39.96018296 261.76150355 36.74743552 262.9433761 32.6484375 263.25390625 C25.68683306 259.95792538 22.81371158 249.68066738 19.75 243.0625 C18.87161817 241.1775332 17.99150567 239.29337157 17.109375 237.41015625 C16.53654785 236.17471069 16.53654785 236.17471069 15.95214844 234.91430664 C15.1470012 233.04093007 15.1470012 233.04093007 14 232 C12.31481992 232.18434023 10.63817273 232.44749959 8.96875 232.7421875 C7.92976563 232.92136719 6.89078125 233.10054687 5.8203125 233.28515625 C4.72460938 233.47980469 3.62890625 233.67445313 2.5 233.875 C-4.65829792 235.13160194 -11.76551692 236.28567079 -19 237 C-12.95619544 246.90117395 -6.77861532 256.71464815 -0.57324219 266.51513672 C1.9948503 270.57132004 4.56039321 274.62911208 7.125 278.6875 C7.62410889 279.47705078 8.12321777 280.26660156 8.63745117 281.08007812 C11.79775464 286.08359018 14.9354347 291.10067009 18.0625 296.125 C21.45978611 301.58252318 24.92882698 306.98851538 28.4375 312.375 C35.71294398 323.58137474 43.00854232 334.8283563 49.1875 346.6875 C50.01314453 348.27111328 50.01314453 348.27111328 50.85546875 349.88671875 C52.18630013 353.5067618 52.39152276 356.17127164 52 360 C47.1959746 365.38988215 40.73010039 368.69968702 34.55078125 372.3203125 C29.2244707 375.4419335 23.95738249 378.65932371 18.6875 381.875 C16.70313243 383.08464761 14.71875747 384.29428309 12.734375 385.50390625 C11.76822266 386.09316895 10.80207031 386.68243164 9.80664062 387.28955078 C7.21114764 388.87132043 4.61375371 390.44990846 2.015625 392.02734375 C-5.35278758 396.50681924 -12.67461277 401.03789573 -19.90258789 405.7409668 C-23.28681634 407.93258829 -26.71114987 410.02806622 -30.19213867 412.06469727 C-50.65195385 424.06428907 -69.41800469 438.06603408 -86.859375 454.11328125 C-88.93472328 455.94246595 -91.06900273 457.57135104 -93.3125 459.1875 C-96.81048871 461.72895287 -99.25952302 464.6429157 -102 468 C-103.15886732 469.04019021 -104.33816893 470.05783069 -105.53125 471.05859375 C-111.56956312 476.27219176 -117.03836474 482.06015624 -122.578125 487.79296875 C-134.71699524 500.13663588 -134.71699524 500.13663588 -142.73828125 500.57421875 C-148.94254604 500.23657975 -154.44931017 498.05448005 -160.1875 495.8125 C-162.26355047 495.02530358 -164.34038442 494.24017052 -166.41796875 493.45703125 C-167.48136475 493.05395752 -168.54476074 492.65088379 -169.64038086 492.2355957 C-175.07230673 490.23785013 -180.57291427 488.44964234 -186.06942749 486.63980103 C-189.2833254 485.57469978 -192.48770326 484.48204074 -195.69140625 483.38671875 C-196.33033813 483.16828308 -196.96927002 482.94984741 -197.62756348 482.72479248 C-203.1234914 480.84268895 -208.61424262 478.94562538 -214.10261536 477.04161072 C-218.16262885 475.63326516 -222.22807324 474.24218369 -226.296875 472.859375 C-237.56510112 468.97172978 -247.88296943 464.22095367 -258.30761719 458.46289062 C-263.59370284 455.59072657 -268.96230171 452.87523501 -274.3125 450.125 C-283.44599663 445.4080485 -292.50371858 440.57705737 -301.50439453 435.61206055 C-308.53784409 431.75124601 -315.65511902 428.06592606 -322.79516602 424.40792847 C-331.8957956 419.74093517 -340.97827501 415.0484781 -349.875 410 C-350.61065186 409.59193115 -351.34630371 409.1838623 -352.10424805 408.76342773 C-357.76853399 405.48585774 -363.86395876 401.40812372 -366 395 C-367.26120341 385.66011091 -364.2297264 378.6520091 -360.25 370.375 C-359.65469697 369.09755925 -359.06113826 367.81930431 -358.46923828 366.5402832 C-356.67431971 362.67989316 -354.83999118 358.83905832 -353 355 C-352.46665039 353.88061035 -351.93330078 352.7612207 -351.38378906 351.60791016 C-348.91161675 346.4232811 -346.42069989 341.24806076 -343.91796875 336.078125 C-337.77645154 323.34716461 -331.90527296 310.48125675 -326.3125 297.5 C-323.1598435 290.19581628 -319.6358149 283.10431873 -316.02490234 276.01757812 C-314.63589796 273.28324457 -313.2651844 270.53995238 -311.89648438 267.79541016 C-311.21939669 266.4396165 -310.53973677 265.08510416 -309.85742188 263.73193359 C-308.34730062 260.73320068 -306.87802306 257.73346942 -305.48046875 254.6796875 C-301.39638378 245.88146588 -295.64165517 236.47258041 -286.26171875 232.62109375 C-274.95381162 229.51581355 -264.94402547 231.94181595 -254 235 C-252.22279056 235.47706313 -250.44544172 235.9536072 -248.66796875 236.4296875 C-228.31332588 241.96527919 -214.89537677 249.59823684 -199.44140625 263.8046875 C-195.89235136 266.99599765 -192.19590084 269.99168287 -188.47265625 272.9765625 C-186.45546597 274.62728061 -184.57908218 276.33713382 -182.6875 278.125 C-180.10173675 280.32049005 -180.10173675 280.32049005 -176.75 279.9375 C-173.89621665 279.19029588 -173.89621665 279.19029588 -172 277 C-172.28198242 276.11441406 -172.56396484 275.22882813 -172.85449219 274.31640625 C-173.92447986 270.94782917 -174.98998408 267.57789557 -176.05273438 264.20703125 C-176.50869979 262.76377938 -176.96631458 261.3210473 -177.42578125 259.87890625 C-178.09578137 257.77487079 -178.75988856 255.66906955 -179.421875 253.5625 C-179.64425842 252.8617334 -179.86664185 252.1609668 -180.09576416 251.43896484 C-181.22064602 247.81796981 -182.20405688 244.21961568 -182.98339844 240.5078125 C-183.21920624 239.42004517 -183.21920624 239.42004517 -183.45977783 238.31030273 C-183.88060867 236.30941461 -184.2666522 234.30130057 -184.65039062 232.29296875 C-186.51693556 227.73870716 -188.34398403 227.07274985 -192.75 225 C-194.86042434 224.08184117 -194.86042434 224.08184117 -196.80078125 223.48828125 C-201.02382304 222.03486492 -204.95610273 220.20274486 -208.9375 218.1875 C-209.5960498 217.85741943 -210.25459961 217.52733887 -210.93310547 217.18725586 C-226.96085352 209.02140464 -239.35766211 198.74781618 -251.96923828 186.01269531 C-255.46118496 182.49500947 -259.02539912 179.16819729 -262.8125 175.96875 C-266.65143075 172.51371232 -270.22864904 168.78994538 -273.8605957 165.11987305 C-277.45453776 161.50272868 -281.11727168 158.06354965 -285.01171875 154.76953125 C-288.53739466 151.63174895 -291.79771849 148.21920396 -295.09375 144.84375 C-297.24837622 142.68301137 -299.49955881 140.67749365 -301.8125 138.6875 C-307.03115447 134.16860845 -311.81047763 129.23851185 -316.64453125 124.31640625 C-320.70583218 120.21055723 -324.85861513 116.30748453 -329.23632812 112.54101562 C-331.42971124 110.62453802 -333.47233399 108.59005573 -335.5 106.5 C-338.35398464 103.59663846 -341.26182584 100.87282072 -344.375 98.25 C-350.77225215 92.65559025 -350.77225215 92.65559025 -351.17675781 87.93896484 C-351.24884424 81.33504715 -350.26068881 75.35083244 -348.75 68.9375 C-348.52183594 67.935979 -348.29367187 66.93445801 -348.05859375 65.90258789 C-347.59639214 63.88061725 -347.12967187 61.85967365 -346.65820312 59.83984375 C-346.07028353 57.3032411 -345.50579829 54.76321448 -344.953125 52.21875 C-339.86989824 29.1380135 -339.86989824 29.1380135 -333 20 C-324.61520346 15.16261738 -316.44251859 17.04636574 -307.5 19.0625 C-306.48647461 19.28510498 -305.47294922 19.50770996 -304.42871094 19.73706055 C-298.53105489 21.07218136 -292.76687719 22.63550436 -287.00048828 24.44995117 C-259.67999235 33.01761602 -230.48542817 37.51910323 -202 40 C-202.00797607 39.32815674 -202.01595215 38.65631348 -202.02416992 37.96411133 C-202.03037354 37.0748999 -202.03657715 36.18568848 -202.04296875 35.26953125 C-202.05094482 34.39143799 -202.0589209 33.51334473 -202.06713867 32.60864258 C-201.93549889 27.49383874 -201.07530188 23.47854009 -198 19.25 C-190.21086382 13.40814786 -181.0317497 12.03790218 -171.6640625 10.28125 C-166.18478682 9.2482862 -160.7293328 8.11729199 -155.2734375 6.96875 C-153.51849464 6.60113513 -151.76353023 6.23362312 -150.00854492 5.86621094 C-147.35699304 5.31097001 -144.70590034 4.75391194 -142.05606079 4.19055176 C-139.54258978 3.65701644 -137.02739813 3.13238422 -134.51171875 2.609375 C-133.38139725 2.36592346 -133.38139725 2.36592346 -132.22824097 2.11755371 C-127.10122186 1.06267142 -121.94630875 0.18884928 -116.80078125 1.60546875 C-114.12550241 3.67721397 -112.75328784 6.38176733 -111.1875 9.3125 C-110.84783203 9.92754395 -110.50816406 10.54258789 -110.15820312 11.17626953 C-109.09364896 13.11132879 -108.04568377 15.05468852 -107 17 C-106.30895593 18.27233219 -105.61755794 19.54447224 -104.92578125 20.81640625 C-103.26995627 23.87024586 -101.63052952 26.93256633 -100 30 C-90.74627498 27.33827983 -81.54407406 24.59259963 -72.42578125 21.4921875 C-68.97492407 20.31940031 -65.51116227 19.19076407 -62.04296875 18.0703125 C-59.79897637 17.34008496 -57.55550546 16.60825342 -55.3125 15.875 C-53.59256836 15.31292847 -53.59256836 15.31292847 -51.83789062 14.73950195 C-45.63424692 12.67290246 -39.53143187 10.46366528 -33.48828125 7.97265625 C-32.5601638 7.59312805 -32.5601638 7.59312805 -31.61329651 7.20593262 C-28.63722333 5.98568618 -25.67577678 4.74141075 -22.7277832 3.45458984 C-15.22802873 0.33643235 -8.13878604 -1.61549131 0 0 Z " fill="#99C83C" transform="translate(366,0)"/>
<path d="M0 0 C8.85833804 5.4712567 11.94010561 23.73608529 14.89746094 33.24804688 C17.96677658 43.05801391 21.29172128 52.77737957 24.625 62.5 C24.90272247 63.31147491 25.18044495 64.12294983 25.46658325 64.95901489 C28.13217074 72.74419936 30.81592047 80.52109957 33.59765625 88.265625 C44.25021249 117.95223387 53.43496175 148.02694108 61.14208984 178.60400391 C62.24000757 182.95005842 63.36177687 187.2893516 64.5 191.625 C64.68353027 192.33277588 64.86706055 193.04055176 65.05615234 193.76977539 C66.31838763 198.58463504 67.68322257 203.36359671 69.08203125 208.140625 C69.64110335 210.07809636 70.19838505 212.0160724 70.75488281 213.95428467 C71.29400438 215.81129173 71.85175991 217.66285769 72.41015625 219.51416016 C74.66308067 227.36798467 75.93402314 234.81382972 75 243 C71.53608345 248.81443134 64.0295191 251.32036856 58 254 C57.13906738 254.38333496 56.27813477 254.76666992 55.39111328 255.16162109 C52.47832142 256.44297063 49.55434654 257.69449854 46.625 258.9375 C45.19812866 259.55866699 45.19812866 259.55866699 43.74243164 260.19238281 C39.96018296 261.76150355 36.74743552 262.9433761 32.6484375 263.25390625 C25.68683306 259.95792538 22.81371158 249.68066738 19.75 243.0625 C18.87161817 241.1775332 17.99150567 239.29337157 17.109375 237.41015625 C16.53654785 236.17471069 16.53654785 236.17471069 15.95214844 234.91430664 C15.1470012 233.04093007 15.1470012 233.04093007 14 232 C12.31481992 232.18434023 10.63817273 232.44749959 8.96875 232.7421875 C7.92976563 232.92136719 6.89078125 233.10054687 5.8203125 233.28515625 C4.72460938 233.47980469 3.62890625 233.67445313 2.5 233.875 C-4.65829792 235.13160194 -11.76551692 236.28567079 -19 237 C-12.95619544 246.90117395 -6.77861532 256.71464815 -0.57324219 266.51513672 C1.9948503 270.57132004 4.56039321 274.62911208 7.125 278.6875 C7.62410889 279.47705078 8.12321777 280.26660156 8.63745117 281.08007812 C11.79775464 286.08359018 14.9354347 291.10067009 18.0625 296.125 C21.45978611 301.58252318 24.92882698 306.98851538 28.4375 312.375 C35.71294398 323.58137474 43.00854232 334.8283563 49.1875 346.6875 C50.01314453 348.27111328 50.01314453 348.27111328 50.85546875 349.88671875 C52.18630013 353.5067618 52.39152276 356.17127164 52 360 C47.1959746 365.38988215 40.73010039 368.69968702 34.55078125 372.3203125 C29.2244707 375.4419335 23.95738249 378.65932371 18.6875 381.875 C16.70313243 383.08464761 14.71875747 384.29428309 12.734375 385.50390625 C11.76822266 386.09316895 10.80207031 386.68243164 9.80664062 387.28955078 C7.21114764 388.87132043 4.61375371 390.44990846 2.015625 392.02734375 C-5.35278758 396.50681924 -12.67461277 401.03789573 -19.90258789 405.7409668 C-23.28681634 407.93258829 -26.71114987 410.02806622 -30.19213867 412.06469727 C-50.65195385 424.06428907 -69.41800469 438.06603408 -86.859375 454.11328125 C-88.93472328 455.94246595 -91.06900273 457.57135104 -93.3125 459.1875 C-96.81048871 461.72895287 -99.25952302 464.6429157 -102 468 C-103.15886732 469.04019021 -104.33816893 470.05783069 -105.53125 471.05859375 C-111.56956312 476.27219176 -117.03836474 482.06015624 -122.578125 487.79296875 C-134.71699524 500.13663588 -134.71699524 500.13663588 -142.73828125 500.57421875 C-148.94254604 500.23657975 -154.44931017 498.05448005 -160.1875 495.8125 C-162.26355047 495.02530358 -164.34038442 494.24017052 -166.41796875 493.45703125 C-167.48136475 493.05395752 -168.54476074 492.65088379 -169.64038086 492.2355957 C-175.07230673 490.23785013 -180.57291427 488.44964234 -186.06942749 486.63980103 C-189.2833254 485.57469978 -192.48770326 484.48204074 -195.69140625 483.38671875 C-196.33033813 483.16828308 -196.96927002 482.94984741 -197.62756348 482.72479248 C-203.1234914 480.84268895 -208.61424262 478.94562538 -214.10261536 477.04161072 C-218.16262885 475.63326516 -222.22807324 474.24218369 -226.296875 472.859375 C-237.56510112 468.97172978 -247.88296943 464.22095367 -258.30761719 458.46289062 C-263.59370284 455.59072657 -268.96230171 452.87523501 -274.3125 450.125 C-283.44599663 445.4080485 -292.50371858 440.57705737 -301.50439453 435.61206055 C-308.53784409 431.75124601 -315.65511902 428.06592606 -322.79516602 424.40792847 C-331.8957956 419.74093517 -340.97827501 415.0484781 -349.875 410 C-350.61065186 409.59193115 -351.34630371 409.1838623 -352.10424805 408.76342773 C-357.76853399 405.48585774 -363.86395876 401.40812372 -366 395 C-367.26120341 385.66011091 -364.2297264 378.6520091 -360.25 370.375 C-359.65469697 369.09755925 -359.06113826 367.81930431 -358.46923828 366.5402832 C-356.67431971 362.67989316 -354.83999118 358.83905832 -353 355 C-352.46665039 353.88061035 -351.93330078 352.7612207 -351.38378906 351.60791016 C-348.91161675 346.4232811 -346.42069989 341.24806076 -343.91796875 336.078125 C-337.77645154 323.34716461 -331.90527296 310.48125675 -326.3125 297.5 C-323.1598435 290.19581628 -319.6358149 283.10431873 -316.02490234 276.01757812 C-314.63589796 273.28324457 -313.2651844 270.53995238 -311.89648438 267.79541016 C-311.21939669 266.4396165 -310.53973677 265.08510416 -309.85742188 263.73193359 C-308.34730062 260.73320068 -306.87802306 257.73346942 -305.48046875 254.6796875 C-301.39638378 245.88146588 -295.64165517 236.47258041 -286.26171875 232.62109375 C-274.95381162 229.51581355 -264.94402547 231.94181595 -254 235 C-252.22279056 235.47706313 -250.44544172 235.9536072 -248.66796875 236.4296875 C-228.31332588 241.96527919 -214.89537677 249.59823684 -199.44140625 263.8046875 C-195.89235136 266.99599765 -192.19590084 269.99168287 -188.47265625 272.9765625 C-186.45546597 274.62728061 -184.57908218 276.33713382 -182.6875 278.125 C-180.10173675 280.32049005 -180.10173675 280.32049005 -176.75 279.9375 C-173.89621665 279.19029588 -173.89621665 279.19029588 -172 277 C-172.28198242 276.11441406 -172.56396484 275.22882813 -172.85449219 274.31640625 C-173.92447986 270.94782917 -174.98998408 267.57789557 -176.05273438 264.20703125 C-176.50869979 262.76377938 -176.96631458 261.3210473 -177.42578125 259.87890625 C-178.09578137 257.77487079 -178.75988856 255.66906955 -179.421875 253.5625 C-179.64425842 252.8617334 -179.86664185 252.1609668 -180.09576416 251.43896484 C-181.22064602 247.81796981 -182.20405688 244.21961568 -182.98339844 240.5078125 C-183.21920624 239.42004517 -183.21920624 239.42004517 -183.45977783 238.31030273 C-183.88060867 236.30941461 -184.2666522 234.30130057 -184.65039062 232.29296875 C-186.51693556 227.73870716 -188.34398403 227.07274985 -192.75 225 C-194.86042434 224.08184117 -194.86042434 224.08184117 -196.80078125 223.48828125 C-201.02382304 222.03486492 -204.95610273 220.20274486 -208.9375 218.1875 C-209.5960498 217.85741943 -210.25459961 217.52733887 -210.93310547 217.18725586 C-226.96085352 209.02140464 -239.35766211 198.74781618 -251.96923828 186.01269531 C-255.46118496 182.49500947 -259.02539912 179.16819729 -262.8125 175.96875 C-266.65143075 172.51371232 -270.22864904 168.78994538 -273.8605957 165.11987305 C-277.45453776 161.50272868 -281.11727168 158.06354965 -285.01171875 154.76953125 C-288.53739466 151.63174895 -291.79771849 148.21920396 -295.09375 144.84375 C-297.24837622 142.68301137 -299.49955881 140.67749365 -301.8125 138.6875 C-307.03115447 134.16860845 -311.81047763 129.23851185 -316.64453125 124.31640625 C-320.70583218 120.21055723 -324.85861513 116.30748453 -329.23632812 112.54101562 C-331.42971124 110.62453802 -333.47233399 108.59005573 -335.5 106.5 C-338.35398464 103.59663846 -341.26182584 100.87282072 -344.375 98.25 C-350.77225215 92.65559025 -350.77225215 92.65559025 -351.17675781 87.93896484 C-351.24884424 81.33504715 -350.26068881 75.35083244 -348.75 68.9375 C-348.52183594 67.935979 -348.29367187 66.93445801 -348.05859375 65.90258789 C-347.59639214 63.88061725 -347.12967187 61.85967365 -346.65820312 59.83984375 C-346.07028353 57.3032411 -345.50579829 54.76321448 -344.953125 52.21875 C-339.86989824 29.1380135 -339.86989824 29.1380135 -333 20 C-324.61520346 15.16261738 -316.44251859 17.04636574 -307.5 19.0625 C-306.48647461 19.28510498 -305.47294922 19.50770996 -304.42871094 19.73706055 C-298.53105489 21.07218136 -292.76687719 22.63550436 -287.00048828 24.44995117 C-259.67999235 33.01761602 -230.48542817 37.51910323 -202 40 C-202.00797607 39.32815674 -202.01595215 38.65631348 -202.02416992 37.96411133 C-202.03037354 37.0748999 -202.03657715 36.18568848 -202.04296875 35.26953125 C-202.05094482 34.39143799 -202.0589209 33.51334473 -202.06713867 32.60864258 C-201.93549889 27.49383874 -201.07530188 23.47854009 -198 19.25 C-190.21086382 13.40814786 -181.0317497 12.03790218 -171.6640625 10.28125 C-166.18478682 9.2482862 -160.7293328 8.11729199 -155.2734375 6.96875 C-153.51849464 6.60113513 -151.76353023 6.23362312 -150.00854492 5.86621094 C-147.35699304 5.31097001 -144.70590034 4.75391194 -142.05606079 4.19055176 C-139.54258978 3.65701644 -137.02739813 3.13238422 -134.51171875 2.609375 C-133.38139725 2.36592346 -133.38139725 2.36592346 -132.22824097 2.11755371 C-127.10122186 1.06267142 -121.94630875 0.18884928 -116.80078125 1.60546875 C-114.12550241 3.67721397 -112.75328784 6.38176733 -111.1875 9.3125 C-110.84783203 9.92754395 -110.50816406 10.54258789 -110.15820312 11.17626953 C-109.09364896 13.11132879 -108.04568377 15.05468852 -107 17 C-106.30895593 18.27233219 -105.61755794 19.54447224 -104.92578125 20.81640625 C-103.26995627 23.87024586 -101.63052952 26.93256633 -100 30 C-90.74627498 27.33827983 -81.54407406 24.59259963 -72.42578125 21.4921875 C-68.97492407 20.31940031 -65.51116227 19.19076407 -62.04296875 18.0703125 C-59.79897637 17.34008496 -57.55550546 16.60825342 -55.3125 15.875 C-53.59256836 15.31292847 -53.59256836 15.31292847 -51.83789062 14.73950195 C-45.63424692 12.67290246 -39.53143187 10.46366528 -33.48828125 7.97265625 C-32.5601638 7.59312805 -32.5601638 7.59312805 -31.61329651 7.20593262 C-28.63722333 5.98568618 -25.67577678 4.74141075 -22.7277832 3.45458984 C-15.22802873 0.33643235 -8.13878604 -1.61549131 0 0 Z M-18.5 10.6875 C-25.03670439 13.70876596 -31.55745885 16.40253133 -38.375 18.7421875 C-40.93574458 19.63072172 -43.46808844 20.54448044 -46 21.5078125 C-68.53626472 30.07103407 -91.01684206 37.81492253 -115 41 C-114.97679687 39.88882813 -114.95359375 38.77765625 -114.9296875 37.6328125 C-114.62252917 23.86876399 -114.62252917 23.86876399 -118.5 10.8125 C-121.9475011 8.3130617 -123.97007824 9.03465924 -128.07080078 9.53051758 C-133.34479455 10.37581596 -138.50369765 11.66257614 -143.6875 12.9375 C-152.00564895 14.92993391 -160.10437998 16.54922325 -168.6015625 17.51171875 C-176.90486657 18.70472221 -185.78041565 20.65148403 -193 25 C-194.79621669 27.84473685 -195.24296365 29.9925448 -195.1953125 33.328125 C-195.18886719 34.12734375 -195.18242187 34.9265625 -195.17578125 35.75 C-195.15902344 36.575 -195.14226562 37.4 -195.125 38.25 C-195.11597656 39.09046875 -195.10695312 39.9309375 -195.09765625 40.796875 C-195.07415817 42.86470604 -195.03828908 44.93238995 -195 47 C-213.27461757 48.03606641 -230.19908001 45.41992079 -247.99560547 41.79931641 C-251.73885323 41.04292166 -255.49279795 40.36166012 -259.25390625 39.69921875 C-270.59559438 37.68161696 -281.45794795 35.28125691 -292.29296875 31.33203125 C-302.27352517 27.74576177 -316.36117905 23.46018131 -327 26 C-338.80980711 37.74550689 -340.27274579 63.20971923 -343 79 C-343.27457031 80.18207031 -343.54914063 81.36414063 -343.83203125 82.58203125 C-344.05495722 87.11831552 -342.97582082 88.61292444 -340 92 C-337.70709604 93.83332872 -335.27976809 95.32863796 -332.75 96.8125 C-332.04544678 97.23772949 -331.34089355 97.66295898 -330.61499023 98.10107422 C-328.41927737 99.41718436 -326.21165639 100.71089491 -324 102 C-323.32791504 102.39654785 -322.65583008 102.7930957 -321.96337891 103.20166016 C-317.36402341 105.90669519 -312.71284099 108.4980224 -308 111 C-307.03320312 111.51409424 -307.03320312 111.51409424 -306.046875 112.03857422 C-284.39051204 123.34860978 -260.4092437 129.41126676 -236.3125 132.5625 C-235.50672516 132.67016693 -234.70095032 132.77783386 -233.87075806 132.88876343 C-219.93943362 134.74665276 -206.02548415 136.07471288 -192 137 C-191.17765414 143.04188256 -190.3600398 149.08438205 -189.54638672 155.12744141 C-189.27027197 157.17350607 -188.99297169 159.21941118 -188.71435547 161.26513672 C-187.2934169 171.70416193 -185.94699396 182.12466202 -184.98828125 192.6171875 C-184.2507316 200.52890735 -182.93396925 208.14372272 -181.0625 215.875 C-180.51752673 218.20556502 -179.97324626 220.53629217 -179.4296875 222.8671875 C-179.04828613 224.48125488 -179.04828613 224.48125488 -178.65917969 226.12792969 C-177.90746692 229.40317008 -177.2922095 232.69480697 -176.6875 236 C-174.97709532 244.19957637 -172.06564363 252.07361418 -169.3112793 259.97070312 C-166.69044374 267.56231811 -164.65078879 275.14014143 -163 283 C-164.14831299 283.45246094 -164.14831299 283.45246094 -165.31982422 283.9140625 C-179.95816473 289.84513725 -193.94889517 298.18068109 -207.8203125 305.68359375 C-208.40433838 305.99929825 -208.98836426 306.31500275 -209.59008789 306.64027405 C-212.48892312 308.20760301 -215.38593335 309.77814145 -218.28027344 311.35375977 C-219.34020508 311.92795654 -220.40013672 312.50215332 -221.4921875 313.09375 C-222.43433105 313.60615234 -223.37647461 314.11855469 -224.34716797 314.64648438 C-228.88841193 316.96349676 -232.9420513 318.29423972 -238 319 C-237.37558734 308.83768399 -234.88983723 300.35785881 -231.11108398 290.94311523 C-227.83645438 282.76437169 -225.35757357 274.47917017 -223 266 C-222.67 265.01 -222.34 264.02 -222 263 C-221.93334624 261.60560336 -221.91461801 260.20830125 -221.9375 258.8125 C-221.9684375 256.9253125 -221.9684375 256.9253125 -222 255 C-223.80834905 254.05451801 -225.62194783 253.11907546 -227.4375 252.1875 C-228.95150391 251.40439453 -228.95150391 251.40439453 -230.49609375 250.60546875 C-237.99545561 247.16930629 -245.79609013 245.21837601 -253.8125 243.375 C-255.65236419 242.94540002 -257.49220871 242.5157158 -259.33203125 242.0859375 C-260.13358643 241.9007959 -260.9351416 241.7156543 -261.76098633 241.52490234 C-263.20438324 241.18652012 -264.64326336 240.82792838 -266.07543945 240.44482422 C-269.16448763 239.73085165 -272.21218876 239.78787798 -275.375 239.75 C-276.66148437 239.72421875 -277.94796875 239.6984375 -279.2734375 239.671875 C-284.07364684 240.09453494 -287.17780335 241.03810647 -290.5222168 244.63891602 C-294.43282828 249.61009583 -297.34083025 255.06077523 -300.1875 260.6875 C-301.03388728 262.33789098 -301.88150852 263.98764982 -302.73046875 265.63671875 C-303.12242432 266.40072998 -303.51437988 267.16474121 -303.91821289 267.9519043 C-304.78971953 269.60188606 -305.73200023 271.21437826 -306.6953125 272.8125 C-307.97056359 274.95064554 -308.8372778 276.97749953 -309.6875 279.3125 C-311.41834869 283.78425546 -313.48382194 288.03594759 -315.6640625 292.30078125 C-319.91848628 300.71778518 -323.82882256 309.27107159 -327.6875 317.875 C-328.95971972 320.70687043 -330.23420176 323.53770271 -331.51171875 326.3671875 C-331.96633987 327.37431793 -331.96633987 327.37431793 -332.43014526 328.40179443 C-334.49846177 332.95864604 -336.68562713 337.44195544 -338.95678711 341.90161133 C-340.43914909 344.88333407 -341.71078448 347.92991898 -343 351 C-344.03246587 353.23344301 -345.07462236 355.46242466 -346.125 357.6875 C-346.73368964 358.99320226 -347.34172595 360.29920922 -347.94921875 361.60546875 C-349.02510855 363.91764599 -350.10744981 366.22620782 -351.20166016 368.52978516 C-352.45943241 371.18084227 -353.6994112 373.83970265 -354.9375 376.5 C-355.3392041 377.33619873 -355.7409082 378.17239746 -356.15478516 379.03393555 C-358.35192844 383.79950971 -359.94009021 387.65769428 -359 393 C-355.20246995 398.1936808 -349.22850681 401.12920808 -343.75 404.3125 C-342.76999023 404.88718018 -341.78998047 405.46186035 -340.78027344 406.05395508 C-334.38342638 409.75489875 -327.91419058 413.07993603 -321.18334961 416.12133789 C-313.69302604 419.52554675 -306.59980469 423.58110032 -299.44238281 427.62744141 C-281.52788676 437.69494408 -263.36176274 447.3366458 -245 456.5625 C-244.35949707 456.88508789 -243.71899414 457.20767578 -243.05908203 457.54003906 C-234.88484725 461.81033768 -234.88484725 461.81033768 -226 461 C-218.99461293 456.16300149 -212.93901735 450.20526068 -206.9921875 444.15234375 C-206.18186066 443.33681534 -205.37153381 442.52128693 -204.53665161 441.68104553 C-201.97788047 439.10465438 -199.42597234 436.52161128 -196.875 433.9375 C-194.31600741 431.35071854 -191.75548914 428.7654941 -189.19192505 426.1832428 C-187.60628151 424.58552021 -186.02331529 422.9851342 -184.443573 421.38157654 C-180.33416027 417.23529343 -176.13800692 413.26797428 -171.70587158 409.46748352 C-169.36985764 407.45791727 -167.12845633 405.35129369 -164.875 403.25 C-155.79453153 394.9733351 -145.94896242 387.60610403 -136.0859375 380.29296875 C-133.9515268 378.70702055 -131.83440608 377.10841557 -129.7265625 375.48828125 C-120.38322559 368.38293226 -110.52064913 362.31826047 -100.45703125 356.2890625 C-96.12258818 353.69121557 -91.85195411 351.01845437 -87.625 348.25 C-81.92976858 344.54706907 -76.11752789 341.08551851 -70.2512207 337.66137695 C-60.65949391 332.06102858 -51.26002044 326.18296019 -41.94189453 320.13989258 C-38.91033858 318.18608225 -35.86904978 316.32305258 -32.6875 314.625 C-28.20133462 312.21901187 -23.99992388 309.41894008 -19.75 306.625 C-13.46698974 302.49654041 -7.13796507 298.76774432 -0.44140625 295.33984375 C2.08505823 294.1014053 2.08505823 294.1014053 4 292 C3.17430958 279.59707575 -8.30812507 266.90316503 -14.9921875 256.98266602 C-18.96862793 251.07700163 -22.84469004 245.13406318 -26.5625 239.0625 C-30.228096 233.08935647 -34.01547989 226.98452011 -39 222 C-44.07454515 221.6367694 -49.01657457 221.97775889 -54 223 C-54.10183594 222.15050781 -54.20367187 221.30101562 -54.30859375 220.42578125 C-55.074336 216.63167981 -56.37692214 213.6700037 -58.0625 210.1875 C-58.36978027 209.54514404 -58.67706055 208.90278809 -58.99365234 208.2409668 C-59.65023301 206.86855146 -60.30982123 205.49757155 -60.97216797 204.12792969 C-62.70910397 200.53193581 -64.41898032 196.92324381 -66.125 193.3125 C-66.6343811 192.23645508 -66.6343811 192.23645508 -67.15405273 191.13867188 C-69.52693647 186.09347596 -71.69163716 180.98645411 -73.7890625 175.8203125 C-75.07335507 172.82915367 -76.51121592 169.95693808 -78 167.0625 C-80.58268911 161.99569769 -82.65232026 156.86177428 -84.6328125 151.53515625 C-87.18898504 144.92562438 -90.11701867 138.47216847 -93 132 C-92.38503662 132.01595215 -91.77007324 132.0319043 -91.13647461 132.04833984 C-83.55883471 132.15497939 -76.12119214 131.58789084 -68.5847168 130.828125 C-66.56947299 130.62570041 -64.55344867 130.43335617 -62.53710938 130.2421875 C-56.53489054 129.65170852 -50.60443233 128.9782568 -44.66796875 127.90625 C-39.31205929 126.96462108 -34.17701453 126.7621181 -28.75 126.875 C-27.89792969 126.88402344 -27.04585938 126.89304687 -26.16796875 126.90234375 C-24.11185127 126.92544619 -22.05588288 126.96129091 -20 127 C-16.64359653 133.61495262 -15.65895136 140.48294239 -14.4375 147.75 C-14.02598911 150.18339257 -13.60830799 152.61575212 -13.18359375 155.046875 C-13.00368896 156.11776367 -12.82378418 157.18865234 -12.63842773 158.29199219 C-12.11932759 161.19906251 -12.11932759 161.19906251 -10 164 C-1.18100652 161.69939301 7.00097858 158.03920819 15.2578125 154.2265625 C17.93755671 153.02793047 20.63918828 151.93847577 23.375 150.875 C28.47396346 148.94718887 28.47396346 148.94718887 33 146 C34.09207129 141.68056763 33.94225075 138.52582893 32.84765625 134.23828125 C32.56962158 133.13266846 32.29158691 132.02705566 32.00512695 130.88793945 C31.69406006 129.70804443 31.38299316 128.52814941 31.0625 127.3125 C30.74692139 126.08168701 30.43134277 124.85087402 30.10620117 123.58276367 C27.55754546 113.78326673 24.71002786 104.07992947 21.77612305 94.3894043 C19.75656071 87.68599756 17.95102208 80.99586191 16.44116211 74.16113281 C14.95312779 67.51726955 13.04925214 61.00223878 11.10498047 54.47900391 C9.88665044 50.34022957 8.81007565 46.24385216 8.00390625 42.00390625 C7.02038308 36.84998283 5.60042487 31.88778283 4.0625 26.875 C3.68448242 25.61236328 3.68448242 25.61236328 3.29882812 24.32421875 C0.91892491 14.94400977 0.91892491 14.94400977 -4 7 C-9.60187107 6.23227369 -13.59070007 8.33013399 -18.5 10.6875 Z " fill="#000000" transform="translate(366,0)"/>
<path d="M0 0 C0.99 0.33 1.98 0.66 3 1 C2.19175781 1.44859375 1.38351563 1.8971875 0.55078125 2.359375 C-3.24558305 6.28945504 -2.77924779 9.97398328 -2.8125 15.25 C-2.83763672 16.18585937 -2.86277344 17.12171875 -2.88867188 18.0859375 C-2.9474757 20.39104732 -2.98380267 22.69426174 -3 25 C-4.32 24.67 -5.64 24.34 -7 24 C-6.34 24 -5.68 24 -5 24 C-5.03480469 22.75863281 -5.06960937 21.51726563 -5.10546875 20.23828125 C-5.13361584 18.59636774 -5.16091501 16.95443954 -5.1875 15.3125 C-5.21263672 14.49587891 -5.23777344 13.67925781 -5.26367188 12.83789062 C-5.32170486 8.05984178 -5.14903871 4.86576907 -2 1 C-1.34 0.67 -0.68 0.34 0 0 Z " fill="#6F8743" transform="translate(176,23)"/>
<path d="M0 0 C0.33 0 0.66 0 1 0 C1.66 3.96 2.32 7.92 3 12 C2.34 12 1.68 12 1 12 C-1.44576827 8.33134759 -1.23607254 6.32799657 -1 2 C-0.67 1.34 -0.34 0.68 0 0 Z " fill="#749041" transform="translate(8,384)"/>
<path d="M0 0 C0.66 0.33 1.32 0.66 2 1 C-0.31 3.64 -2.62 6.28 -5 9 C-5 4.61031544 -2.87194899 3.23094261 0 0 Z " fill="#83A542" transform="translate(78,242)"/>
<path d="M0 0 C0.99 0.33 1.98 0.66 3 1 C-1.75 5 -1.75 5 -4 5 C-2.25 1.125 -2.25 1.125 0 0 Z " fill="#85AA3F" transform="translate(176,23)"/>
</svg>